<svg xmlns="http://www.w3.org/2000/svg" viewBox="0 0 256 256"><linearGradient id="a" gradientUnits="userSpaceOnUse" x1="221.467" y1="-21.579" x2="34.533" y2="277.579"><stop offset="0" stop-color="#1066b1"/><stop offset="1" stop-color="#7c3b97"/></linearGradient><path fill="url(#a)" d="M0 0h256v256H0z"/><path d="M197.5 66.3l-32.8-32.8c-3.5-3.5-8.3-5.5-13.2-5.5H71.7C61.4 28 53 36.4 53 46.8v162.5c0 10.3 8.4 18.7 18.7 18.7h112.5c10.3 0 18.7-8.4 18.7-18.7V79.6c.1-5-1.9-9.8-5.4-13.3zM153 40.7c1.1.3 2.1.8 2.9 1.6l32.8 32.8c.8.8 1.4 1.8 1.6 2.9H153V40.7zm37.5 168.6c0 3.4-2.8 6.2-6.2 6.2H71.7c-3.4 0-6.2-2.8-6.2-6.2V46.8c0-3.4 2.8-6.3 6.2-6.3h68.8v40.7c0 5.2 4.2 9.3 9.4 9.3h40.6v118.8zM99.9 128h-3.1c-10.4 0-18.8 8.4-18.8 18.8v12.5c0 10.4 8.4 18.8 18.8 18.8h3.1c1.7 0 3.1-1.4 3.1-3.1v-6.2c0-1.7-1.4-3.1-3.1-3.1h-3.1c-3.5 0-6.2-2.8-6.2-6.2V147c0-3.5 2.8-6.2 6.2-6.2h3.1c1.7 0 3.1-1.4 3.1-3.1v-6.2c0-2.1-1.4-3.5-3.1-3.5zm43.7 0c-1.7 0-3.1 1.4-3.1 3.1v8.1c0 13.9 5 26.9 14.2 36.8 1.2 1.3 2.8 2 4.6 2 1.7 0 3.4-.7 4.6-2 9.1-9.8 14.2-22.9 14.2-36.8v-8.1c0-1.7-1.4-3.1-3.1-3.1h-6.2c-1.7 0-3.1 1.4-3.1 3.1v8.1c0 7.9-2.2 15.7-6.2 22.2-4-6.5-6.2-14.3-6.2-22.2v-8.1c0-1.7-1.4-3.1-3.1-3.1h-6.6zm-20.5 16.6c-.5-.5-.8-1-.8-1.5 0-1.2 1.7-2.6 4.1-2.6h4.8c1.7 0 3.1-1.4 3.1-3.1v-6.2c0-1.7-1.4-3.1-3.1-3.1h-4.8c-9.1 0-16.6 6.8-16.6 15.1 0 4.2 1.9 8.2 5.2 11l8.6 7.3c.5.5.8 1 .8 1.5 0 1.2-1.7 2.6-4.1 2.6h-4.8c-1.7 0-3.1 1.4-3.1 3.1v6.2c0 1.7 1.4 3.1 3.1 3.1h4.8c9.1 0 16.6-6.8 16.6-15.1 0-4.2-1.9-8.2-5.2-11l-8.6-7.3z" fill="#fff"/></svg>